<svg viewBox="0 0 28 28" fill="none" xmlns="http://www.w3.org/2000/svg">
  <path d="M9.05203 18.9467C7.78037 17.6867 6.9987 15.9367 6.9987 14C6.9987 12.0634 7.78037 10.3134 9.05203 9.05338L10.7087 10.71C9.85703 11.55 9.33203 12.7167 9.33203 14C9.33203 15.2834 9.85703 16.45 10.697 17.3017L9.05203 18.9467ZM18.9454 18.9467C20.217 17.6867 20.9987 15.9367 20.9987 14C20.9987 12.0634 20.217 10.3134 18.9454 9.05338L17.2887 10.71C18.1404 11.55 18.6654 12.7167 18.6654 14C18.6654 15.2834 18.1404 16.45 17.3004 17.3017L18.9454 18.9467ZM13.9987 11.6667C12.7154 11.6667 11.6654 12.7167 11.6654 14C11.6654 15.2834 12.7154 16.3334 13.9987 16.3334C15.282 16.3334 16.332 15.2834 16.332 14C16.332 12.7167 15.282 11.6667 13.9987 11.6667ZM23.332 14C23.332 16.5784 22.282 18.9117 20.5904 20.5917L22.247 22.2484C24.3587 20.1367 25.6654 17.22 25.6654 14C25.6654 10.78 24.3587 7.86338 22.247 5.75171L20.5904 7.40838C22.282 9.08838 23.332 11.4217 23.332 14ZM7.40703 7.40838L5.75036 5.75171C3.6387 7.86338 2.33203 10.78 2.33203 14C2.33203 17.22 3.6387 20.1367 5.75036 22.2484L7.40703 20.5917C5.71536 18.9117 4.66536 16.5784 4.66536 14C4.66536 11.4217 5.71536 9.08838 7.40703 7.40838Z" fill="currentColor"/>
</svg>
