<svg width="25" height="25" viewBox="0 0 25 25" fill="none" xmlns="http://www.w3.org/2000/svg">
<path d="M17.707 7.29163L13.5404 7.29163V9.37496L17.707 9.37496C19.4258 9.37496 20.832 10.7812 20.832 12.5C20.832 14.2187 19.4258 15.625 17.707 15.625H13.5404V17.7083H17.707C20.582 17.7083 22.9154 15.375 22.9154 12.5C22.9154 9.62496 20.582 7.29163 17.707 7.29163ZM11.457 15.625L7.29036 15.625C5.57161 15.625 4.16536 14.2187 4.16536 12.5C4.16536 10.7812 5.57161 9.37496 7.29036 9.37496L11.457 9.37496V7.29163L7.29036 7.29163C4.41536 7.29163 2.08203 9.62496 2.08203 12.5C2.08203 15.375 4.41536 17.7083 7.29036 17.7083H11.457V15.625ZM8.33203 11.4583L16.6654 11.4583V13.5416L8.33203 13.5416V11.4583Z" fill="white"/>
</svg>
