<svg viewBox="0 0 28 28" fill="none" xmlns="http://www.w3.org/2000/svg">
  <path d="M11.668 14.0001C10.3846 14.0001 9.33464 15.0501 9.33464 16.3334C9.33464 17.6167 10.3846 18.6667 11.668 18.6667C12.9513 18.6667 14.0013 17.6167 14.0013 16.3334C14.0013 15.0501 12.9513 14.0001 11.668 14.0001ZM7.0013 9.33341C5.71797 9.33341 4.66797 10.3834 4.66797 11.6667C4.66797 12.9501 5.71797 14.0001 7.0013 14.0001C8.28464 14.0001 9.33464 12.9501 9.33464 11.6667C9.33464 10.3834 8.28464 9.33341 7.0013 9.33341ZM7.0013 18.6667C5.71797 18.6667 4.66797 19.7167 4.66797 21.0001C4.66797 22.2834 5.71797 23.3334 7.0013 23.3334C8.28464 23.3334 9.33464 22.2834 9.33464 21.0001C9.33464 19.7167 8.28464 18.6667 7.0013 18.6667ZM21.0013 9.33341C22.2846 9.33341 23.3346 8.28341 23.3346 7.00008C23.3346 5.71675 22.2846 4.66675 21.0013 4.66675C19.718 4.66675 18.668 5.71675 18.668 7.00008C18.668 8.28341 19.718 9.33341 21.0013 9.33341ZM16.3346 18.6667C15.0513 18.6667 14.0013 19.7167 14.0013 21.0001C14.0013 22.2834 15.0513 23.3334 16.3346 23.3334C17.618 23.3334 18.668 22.2834 18.668 21.0001C18.668 19.7167 17.618 18.6667 16.3346 18.6667ZM21.0013 14.0001C19.718 14.0001 18.668 15.0501 18.668 16.3334C18.668 17.6167 19.718 18.6667 21.0013 18.6667C22.2846 18.6667 23.3346 17.6167 23.3346 16.3334C23.3346 15.0501 22.2846 14.0001 21.0013 14.0001ZM16.3346 9.33341C15.0513 9.33341 14.0013 10.3834 14.0013 11.6667C14.0013 12.9501 15.0513 14.0001 16.3346 14.0001C17.618 14.0001 18.668 12.9501 18.668 11.6667C18.668 10.3834 17.618 9.33341 16.3346 9.33341ZM11.668 4.66675C10.3846 4.66675 9.33464 5.71675 9.33464 7.00008C9.33464 8.28341 10.3846 9.33341 11.668 9.33341C12.9513 9.33341 14.0013 8.28341 14.0013 7.00008C14.0013 5.71675 12.9513 4.66675 11.668 4.66675Z" fill="currentColor"/>
</svg>
