<svg viewBox="0 0 28 28" fill="none" xmlns="http://www.w3.org/2000/svg">
  <path d="M16.3336 24.4999H11.6669M21.0002 9.33325C21.0002 7.47674 20.2627 5.69626 18.95 4.3835C17.6372 3.07075 15.8567 2.33325 14.0002 2.33325C12.1437 2.33325 10.3632 3.07075 9.05048 4.3835C7.73772 5.69626 7.00023 7.47674 7.00023 9.33325C7.00023 12.9385 6.09077 15.4069 5.07483 17.0396C4.21787 18.4168 3.78939 19.1054 3.8051 19.2975C3.8225 19.5102 3.86756 19.5913 4.03896 19.7184C4.19376 19.8333 4.89158 19.8333 6.28722 19.8333H21.7132C23.1089 19.8333 23.8067 19.8333 23.9615 19.7184C24.1329 19.5913 24.178 19.5102 24.1953 19.2975C24.2111 19.1054 23.7826 18.4168 22.9256 17.0396C21.9097 15.4069 21.0002 12.9385 21.0002 9.33325Z" stroke="currentColor" stroke-width="1.13778" stroke-linecap="round" stroke-linejoin="round"/>
</svg>
