<svg viewBox="0 0 28 28" fill="none" xmlns="http://www.w3.org/2000/svg">
  <path d="M10.9593 22.5996L11.6411 24.1331C11.8438 24.5896 12.1746 24.9774 12.5934 25.2496C13.0121 25.5218 13.5009 25.6667 14.0004 25.6666C14.4998 25.6667 14.9886 25.5218 15.4074 25.2496C15.8261 24.9774 16.1569 24.5896 16.3596 24.1331L17.0415 22.5996C17.2842 22.0554 17.6925 21.6018 18.2081 21.3033C18.7271 21.0039 19.3274 20.8764 19.9231 20.939L21.5915 21.1166C22.0881 21.1691 22.5893 21.0764 23.0343 20.8498C23.4793 20.6232 23.849 20.2723 24.0985 19.8397C24.3484 19.4074 24.4674 18.9119 24.4412 18.4133C24.415 17.9147 24.2446 17.4344 23.9507 17.0307L22.963 15.6734C22.6112 15.1866 22.4233 14.6005 22.4263 13.9999C22.4262 13.4009 22.6159 12.8173 22.9681 12.3329L23.9559 10.9757C24.2498 10.572 24.4202 10.0917 24.4464 9.59304C24.4726 9.09441 24.3536 8.59888 24.1037 8.16659C23.8541 7.73403 23.4845 7.38316 23.0395 7.15652C22.5945 6.92988 22.0933 6.8372 21.5967 6.88973L19.9283 7.06733C19.3325 7.1299 18.7322 7.00239 18.2133 6.70307C17.6966 6.40288 17.2882 5.94684 17.0467 5.40029L16.3596 3.86677C16.1569 3.41028 15.8261 3.02242 15.4074 2.75022C14.9886 2.47801 14.4998 2.33317 14.0004 2.33325C13.5009 2.33317 13.0121 2.47801 12.5934 2.75022C12.1746 3.02242 11.8438 3.41028 11.6411 3.86677L10.9593 5.40029C10.7177 5.94684 10.3093 6.40288 9.79259 6.70307C9.27367 7.00239 8.67337 7.1299 8.07759 7.06733L6.40407 6.88973C5.90745 6.8372 5.40627 6.92988 4.96127 7.15652C4.51628 7.38316 4.14659 7.73403 3.89703 8.16659C3.64716 8.59888 3.52811 9.09441 3.55434 9.59304C3.58058 10.0917 3.75096 10.572 4.04481 10.9757L5.03259 12.3329C5.38485 12.8173 5.57455 13.4009 5.57444 13.9999C5.57455 14.5989 5.38485 15.1825 5.03259 15.667L4.04481 17.0242C3.75096 17.4279 3.58058 17.9082 3.55434 18.4068C3.52811 18.9054 3.64716 19.401 3.89703 19.8333C4.14683 20.2656 4.51657 20.6163 4.9615 20.8429C5.40643 21.0695 5.90749 21.1623 6.40407 21.1101L8.0724 20.9325C8.66818 20.8699 9.26849 20.9974 9.7874 21.2968C10.306 21.5961 10.7163 22.0522 10.9593 22.5996Z" stroke="currentColor" stroke-width="1.13778" stroke-linecap="round" stroke-linejoin="round"/>
  <path d="M13.9983 17.4999C15.9313 17.4999 17.4983 15.9329 17.4983 13.9999C17.4983 12.0669 15.9313 10.4999 13.9983 10.4999C12.0653 10.4999 10.4983 12.0669 10.4983 13.9999C10.4983 15.9329 12.0653 17.4999 13.9983 17.4999Z" stroke="currentColor" stroke-width="1.13778" stroke-linecap="round" stroke-linejoin="round"/>
</svg>
