<svg viewBox="0 0 22 22" fill="none" xmlns="http://www.w3.org/2000/svg">
  <path d="M3.4375 11.0005C3.4375 10.8182 3.50993 10.6433 3.63886 10.5144C3.7678 10.3855 3.94266 10.313 4.125 10.313H10.3125C10.4948 10.313 10.6697 10.3855 10.7986 10.5144C10.9276 10.6433 11 10.8182 11 11.0005C11 11.1829 10.9276 11.3577 10.7986 11.4867C10.6697 11.6156 10.4948 11.688 10.3125 11.688L4.125 11.688C3.94266 11.688 3.7678 11.6156 3.63886 11.4867C3.50993 11.3577 3.4375 11.1829 3.4375 11.0005ZM4.125 6.18804L8.9375 6.18804C9.11984 6.18804 9.2947 6.11561 9.42364 5.98668C9.55257 5.85775 9.625 5.68288 9.625 5.50054C9.625 5.3182 9.55257 5.14334 9.42364 5.01441C9.2947 4.88547 9.11984 4.81304 8.9375 4.81304L4.125 4.81304C3.94266 4.81304 3.7678 4.88547 3.63886 5.01441C3.50993 5.14334 3.4375 5.3182 3.4375 5.50054C3.4375 5.68288 3.50993 5.85775 3.63886 5.98668C3.7678 6.11561 3.94266 6.18804 4.125 6.18804ZM15.8125 15.813L4.125 15.813C3.94266 15.813 3.7678 15.8855 3.63886 16.0144C3.50993 16.1433 3.4375 16.3182 3.4375 16.5005C3.4375 16.6829 3.50993 16.8577 3.63886 16.9867C3.7678 17.1156 3.94266 17.188 4.125 17.188H15.8125C15.9948 17.188 16.1697 17.1156 16.2986 16.9867C16.4276 16.8577 16.5 16.6829 16.5 16.5005C16.5 16.3182 16.4276 16.1433 16.2986 16.0144C16.1697 15.8855 15.9948 15.813 15.8125 15.813ZM19.7364 7.07663L16.2989 3.63913C16.2351 3.57521 16.1592 3.5245 16.0758 3.48991C15.9923 3.45531 15.9028 3.4375 15.8125 3.4375C15.7222 3.4375 15.6327 3.45531 15.5492 3.48991C15.4658 3.5245 15.3899 3.57521 15.3261 3.63913L11.8886 7.07663C11.7596 7.20564 11.6871 7.3806 11.6871 7.56304C11.6871 7.74548 11.7596 7.92044 11.8886 8.04945C12.0176 8.17845 12.1926 8.25092 12.375 8.25092C12.5574 8.25092 12.7324 8.17845 12.8614 8.04945L15.125 5.78499L15.125 12.3755C15.125 12.5579 15.1974 12.7327 15.3264 12.8617C15.4553 12.9906 15.6302 13.063 15.8125 13.063C15.9948 13.063 16.1697 12.9906 16.2986 12.8617C16.4276 12.7327 16.5 12.5579 16.5 12.3755V5.78499L18.7636 8.04945C18.8275 8.11332 18.9033 8.16399 18.9868 8.19856C19.0702 8.23313 19.1597 8.25092 19.25 8.25092C19.3403 8.25092 19.4298 8.23313 19.5132 8.19856C19.5967 8.16399 19.6725 8.11332 19.7364 8.04945C19.8003 7.98557 19.851 7.90974 19.8855 7.82628C19.9201 7.74282 19.9379 7.65337 19.9379 7.56304C19.9379 7.47271 19.9201 7.38326 19.8855 7.2998C19.851 7.21634 19.8003 7.14051 19.7364 7.07663Z" fill="currentColor"/>
</svg>
