<svg viewBox="0 0 26 28" fill="none" xmlns="http://www.w3.org/2000/svg">
  <path d="M13.625 10.3125V18.5625C13.625 18.7448 13.5526 18.9197 13.4236 19.0486C13.2947 19.1776 13.1198 19.25 12.9375 19.25C12.7552 19.25 12.5803 19.1776 12.4514 19.0486C12.3224 18.9197 12.25 18.7448 12.25 18.5625V10.3125C12.25 10.1302 12.3224 9.9553 12.4514 9.82636C12.5803 9.69743 12.7552 9.625 12.9375 9.625C13.1198 9.625 13.2947 9.69743 13.4236 9.82636C13.5526 9.9553 13.625 10.1302 13.625 10.3125ZM19.125 16.5C18.9427 16.5 18.7678 16.5724 18.6389 16.7014C18.5099 16.8303 18.4375 17.0052 18.4375 17.1875V18.5625C18.4375 18.7448 18.5099 18.9197 18.6389 19.0486C18.7678 19.1776 18.9427 19.25 19.125 19.25C19.3073 19.25 19.4822 19.1776 19.6111 19.0486C19.7401 18.9197 19.8125 18.7448 19.8125 18.5625V17.1875C19.8125 17.0052 19.7401 16.8303 19.6111 16.7014C19.4822 16.5724 19.3073 16.5 19.125 16.5ZM21.1875 13.75L19.8125 13.75V3.4375C19.8125 3.25516 19.7401 3.0803 19.6111 2.95136C19.4822 2.82243 19.3073 2.75 19.125 2.75C18.9427 2.75 18.7678 2.82243 18.6389 2.95136C18.5099 3.0803 18.4375 3.25516 18.4375 3.4375V13.75H17.0625C16.8802 13.75 16.7053 13.8224 16.5764 13.9514C16.4474 14.0803 16.375 14.2552 16.375 14.4375C16.375 14.6198 16.4474 14.7947 16.5764 14.9236C16.7053 15.0526 16.8802 15.125 17.0625 15.125L21.1875 15.125C21.3698 15.125 21.5447 15.0526 21.6736 14.9236C21.8026 14.7947 21.875 14.6198 21.875 14.4375C21.875 14.2552 21.8026 14.0803 21.6736 13.9514C21.5447 13.8224 21.3698 13.75 21.1875 13.75ZM6.75 13.75C6.56766 13.75 6.3928 13.8224 6.26386 13.9514C6.13493 14.0803 6.0625 14.2552 6.0625 14.4375L6.0625 18.5625C6.0625 18.7448 6.13493 18.9197 6.26386 19.0486C6.3928 19.1776 6.56766 19.25 6.75 19.25C6.93234 19.25 7.1072 19.1776 7.23614 19.0486C7.36507 18.9197 7.4375 18.7448 7.4375 18.5625L7.4375 14.4375C7.4375 14.2552 7.36507 14.0803 7.23614 13.9514C7.1072 13.8224 6.93234 13.75 6.75 13.75ZM8.8125 11H7.4375L7.4375 3.4375C7.4375 3.25516 7.36507 3.0803 7.23614 2.95136C7.1072 2.82243 6.93234 2.75 6.75 2.75C6.56766 2.75 6.3928 2.82243 6.26386 2.95136C6.13493 3.0803 6.0625 3.25516 6.0625 3.4375L6.0625 11H4.6875C4.50516 11 4.3303 11.0724 4.20136 11.2014C4.07243 11.3303 4 11.5052 4 11.6875C4 11.8698 4.07243 12.0447 4.20136 12.1736C4.3303 12.3026 4.50516 12.375 4.6875 12.375H8.8125C8.99484 12.375 9.1697 12.3026 9.29864 12.1736C9.42757 12.0447 9.5 11.8698 9.5 11.6875C9.5 11.5052 9.42757 11.3303 9.29864 11.2014C9.1697 11.0724 8.99484 11 8.8125 11ZM15 6.875H13.625V3.4375C13.625 3.25516 13.5526 3.0803 13.4236 2.95136C13.2947 2.82243 13.1198 2.75 12.9375 2.75C12.7552 2.75 12.5803 2.82243 12.4514 2.95136C12.3224 3.0803 12.25 3.25516 12.25 3.4375V6.875H10.875C10.6927 6.875 10.5178 6.94743 10.3889 7.07636C10.2599 7.2053 10.1875 7.38016 10.1875 7.5625C10.1875 7.74484 10.2599 7.9197 10.3889 8.04864C10.5178 8.17757 10.6927 8.25 10.875 8.25L15 8.25C15.1823 8.25 15.3572 8.17757 15.4861 8.04864C15.6151 7.9197 15.6875 7.74484 15.6875 7.5625C15.6875 7.38016 15.6151 7.2053 15.4861 7.07636C15.3572 6.94743 15.1823 6.875 15 6.875Z" fill="currentColor"/>
</svg>
